<?xml version="1.0" encoding="utf-8"?>
<!-- Generator: Adobe Illustrator 18.1.1, SVG Export Plug-In . SVG Version: 6.00 Build 0)  -->
<svg version="1.1" id="Layer_1" xmlns="http://www.w3.org/2000/svg" xmlns:xlink="http://www.w3.org/1999/xlink" x="0px" y="0px"
	 viewBox="0 0 731.7 200" enable-background="new 0 0 731.7 200" xml:space="preserve">
<g>
	<g>
		<path fill="#010101" d="M293.9,173.2v1.6H280v10.6h11.5v1.5H280v11h13.9v1.6h-15.8v-26.3L293.9,173.2L293.9,173.2z"/>
		<path fill="#010101" d="M313.1,183.3c-0.1,0.2-0.2,0.3-0.4,0.3c-0.1,0-0.3-0.1-0.5-0.2c-0.2-0.2-0.5-0.3-0.9-0.5s-0.8-0.4-1.3-0.5
			c-0.5-0.2-1.1-0.2-1.9-0.2c-0.7,0-1.3,0.1-1.8,0.3c-0.6,0.2-1,0.4-1.4,0.8c-0.4,0.3-0.7,0.7-0.9,1.1s-0.3,0.9-0.3,1.3
			c0,0.6,0.1,1.1,0.4,1.4c0.3,0.4,0.7,0.7,1.2,1c0.5,0.3,1,0.5,1.6,0.7c0.6,0.2,1.2,0.4,1.9,0.6c0.6,0.2,1.3,0.4,1.9,0.7
			s1.2,0.5,1.6,0.9c0.5,0.4,0.9,0.8,1.2,1.3c0.3,0.5,0.4,1.2,0.4,1.9c0,0.8-0.1,1.6-0.4,2.3c-0.3,0.7-0.7,1.3-1.3,1.8
			c-0.6,0.5-1.2,0.9-2,1.2c-0.8,0.3-1.7,0.4-2.8,0.4c-1.3,0-2.4-0.2-3.4-0.6c-0.9-0.4-1.8-1-2.5-1.6l0.4-0.6
			c0.1-0.1,0.1-0.2,0.2-0.2c0.1,0,0.2-0.1,0.3-0.1c0.2,0,0.4,0.1,0.6,0.3c0.2,0.2,0.5,0.4,0.9,0.6c0.4,0.2,0.9,0.4,1.4,0.6
			c0.6,0.2,1.3,0.3,2.1,0.3c0.8,0,1.5-0.1,2.1-0.3c0.6-0.2,1.1-0.5,1.5-0.9c0.4-0.4,0.7-0.8,0.9-1.3c0.2-0.5,0.3-1,0.3-1.6
			c0-0.6-0.1-1.1-0.4-1.5c-0.3-0.4-0.7-0.8-1.2-1c-0.5-0.3-1-0.5-1.6-0.7c-0.6-0.2-1.2-0.4-1.9-0.6c-0.7-0.2-1.3-0.4-1.9-0.7
			c-0.6-0.2-1.2-0.5-1.6-0.9c-0.5-0.4-0.9-0.8-1.2-1.3c-0.3-0.5-0.4-1.2-0.4-1.9c0-0.7,0.1-1.3,0.4-1.9c0.3-0.6,0.7-1.1,1.2-1.6
			c0.5-0.5,1.2-0.8,1.9-1.1c0.8-0.3,1.6-0.4,2.5-0.4c1.1,0,2.1,0.2,3,0.5c0.9,0.3,1.7,0.8,2.4,1.5L313.1,183.3z"/>
		<path fill="#010101" d="M327.7,199.8c-1.3,0-2.2-0.3-2.9-1c-0.7-0.7-1-1.8-1-3.2v-12.7h-2.7c-0.1,0-0.2,0-0.3-0.1
			c-0.1-0.1-0.1-0.2-0.1-0.3v-0.7l3.2-0.2l0.4-6.6c0-0.1,0.1-0.2,0.1-0.3c0.1-0.1,0.2-0.1,0.3-0.1h0.8v7.1h5.8v1.3h-5.8v12.6
			c0,0.5,0.1,0.9,0.2,1.3c0.1,0.4,0.3,0.7,0.5,0.9c0.2,0.2,0.5,0.4,0.8,0.5c0.3,0.1,0.6,0.2,1,0.2c0.4,0,0.8-0.1,1.2-0.2
			c0.3-0.1,0.6-0.3,0.8-0.4c0.2-0.2,0.4-0.3,0.6-0.4c0.1-0.1,0.3-0.2,0.4-0.2c0.1,0,0.2,0.1,0.3,0.2l0.5,0.8
			c-0.5,0.5-1.1,0.9-1.8,1.3C329.2,199.7,328.5,199.8,327.7,199.8z"/>
		<path fill="#010101" d="M338.6,198.1c0-0.2,0-0.5,0.1-0.7s0.2-0.4,0.4-0.5c0.2-0.2,0.3-0.3,0.5-0.4c0.2-0.1,0.4-0.1,0.7-0.1
			c0.2,0,0.5,0,0.7,0.1c0.2,0.1,0.4,0.2,0.5,0.4c0.2,0.2,0.3,0.3,0.4,0.5s0.1,0.4,0.1,0.7c0,0.2,0,0.5-0.1,0.7
			c-0.1,0.2-0.2,0.4-0.4,0.5c-0.2,0.2-0.3,0.3-0.5,0.4c-0.2,0.1-0.4,0.1-0.7,0.1c-0.5,0-0.9-0.2-1.2-0.5
			C338.7,199,338.6,198.6,338.6,198.1z"/>
		<path fill="#010101" d="M364.3,198.2h6v-21.4c0-0.4,0-0.9,0.1-1.3l-5.8,5.2c-0.1,0.1-0.3,0.2-0.4,0.2c-0.2,0-0.4-0.1-0.5-0.2
			l-0.5-0.7l7.6-6.7h1.4v25.1h5.8v1.4h-13.6V198.2z"/>
		<path fill="#010101" d="M394.6,188.3c-1.1,0-2.1-0.2-3-0.5c-0.9-0.4-1.7-0.9-2.4-1.5c-0.7-0.7-1.2-1.4-1.6-2.4
			c-0.4-0.9-0.6-2-0.6-3.1c0-1.1,0.2-2.2,0.6-3.1c0.4-1,1-1.8,1.7-2.5c0.7-0.7,1.6-1.3,2.7-1.7c1-0.4,2.1-0.6,3.4-0.6
			c1.2,0,2.2,0.2,3.2,0.6c1,0.4,1.8,1,2.5,1.7c0.7,0.7,1.2,1.6,1.6,2.6c0.4,1,0.6,2.1,0.6,3.4c0,0.7-0.1,1.3-0.2,2
			c-0.1,0.6-0.4,1.2-0.6,1.9s-0.6,1.3-1,1.9c-0.4,0.7-0.9,1.3-1.4,2.1l-6.9,10.1c-0.2,0.3-0.5,0.4-0.9,0.4h-1.6l7.8-10.9
			c0.4-0.5,0.7-1,1-1.5c0.3-0.5,0.6-0.9,0.9-1.3c-0.7,0.8-1.6,1.4-2.6,1.8C396.8,188.1,395.7,188.3,394.6,188.3z M401.7,180.8
			c0-1-0.2-1.8-0.5-2.6c-0.3-0.8-0.7-1.5-1.3-2c-0.6-0.6-1.2-1-2-1.3c-0.8-0.3-1.6-0.5-2.5-0.5c-1,0-1.9,0.2-2.7,0.5
			s-1.5,0.7-2.1,1.3c-0.6,0.6-1,1.2-1.3,2c-0.3,0.8-0.5,1.6-0.5,2.6c0,1,0.1,1.8,0.4,2.6c0.3,0.8,0.7,1.4,1.3,2c0.5,0.5,1.2,1,2,1.2
			c0.8,0.3,1.6,0.4,2.5,0.4c1.1,0,2-0.2,2.8-0.5c0.8-0.4,1.5-0.8,2.1-1.4c0.6-0.6,1-1.2,1.3-2C401.6,182.3,401.7,181.6,401.7,180.8z
			"/>
		<path fill="#010101" d="M420,199.8c-1.3,0-2.4-0.2-3.5-0.5c-1-0.3-1.9-0.8-2.7-1.5s-1.3-1.4-1.8-2.3c-0.4-0.9-0.6-1.9-0.6-3
			c0-1,0.1-1.8,0.4-2.6c0.3-0.8,0.7-1.4,1.2-2c0.5-0.6,1.1-1,1.8-1.4c0.7-0.4,1.5-0.7,2.3-0.8c-0.8-0.2-1.5-0.5-2-0.9
			c-0.6-0.4-1.1-0.8-1.5-1.4c-0.4-0.5-0.7-1.1-0.9-1.8c-0.2-0.7-0.3-1.3-0.3-2.1c0-0.9,0.2-1.8,0.5-2.6c0.4-0.8,0.9-1.5,1.5-2.1
			s1.5-1.1,2.4-1.4c0.9-0.3,2-0.5,3.2-0.5c1.2,0,2.2,0.2,3.2,0.5c0.9,0.3,1.7,0.8,2.4,1.4c0.7,0.6,1.2,1.3,1.5,2.1
			c0.4,0.8,0.5,1.7,0.5,2.6c0,0.7-0.1,1.4-0.3,2.1c-0.2,0.7-0.5,1.2-0.9,1.8c-0.4,0.5-0.9,1-1.5,1.4c-0.6,0.4-1.3,0.7-2,0.9
			c0.8,0.2,1.6,0.5,2.3,0.8c0.7,0.4,1.3,0.8,1.8,1.4c0.5,0.6,0.9,1.2,1.2,2s0.4,1.6,0.4,2.6c0,1.1-0.2,2.1-0.6,3
			c-0.4,0.9-1,1.7-1.8,2.3s-1.6,1.1-2.7,1.5C422.4,199.7,421.3,199.8,420,199.8z M420,198.4c1,0,1.9-0.1,2.7-0.4
			c0.8-0.3,1.5-0.7,2.1-1.2c0.6-0.5,1.1-1.1,1.4-1.9c0.3-0.7,0.5-1.5,0.5-2.4c0-1.2-0.2-2.1-0.6-2.9c-0.4-0.8-1-1.4-1.6-1.8
			c-0.7-0.5-1.4-0.8-2.2-1c-0.8-0.2-1.6-0.3-2.3-0.3s-1.5,0.1-2.3,0.3c-0.8,0.2-1.5,0.5-2.2,1c-0.7,0.5-1.2,1.1-1.6,1.8
			c-0.4,0.8-0.6,1.7-0.6,2.9c0,0.9,0.2,1.7,0.5,2.4c0.3,0.7,0.8,1.3,1.4,1.9c0.6,0.5,1.3,0.9,2.1,1.2
			C418.1,198.3,419,198.4,420,198.4z M420,185.1c1,0,1.9-0.2,2.6-0.5s1.3-0.7,1.8-1.2c0.5-0.5,0.8-1.1,1.1-1.8
			c0.2-0.7,0.3-1.3,0.3-2c0-0.8-0.1-1.5-0.4-2.1c-0.3-0.7-0.6-1.2-1.1-1.7c-0.5-0.5-1.1-0.9-1.8-1.1s-1.6-0.4-2.5-0.4
			c-0.9,0-1.8,0.1-2.5,0.4c-0.7,0.3-1.3,0.7-1.9,1.1c-0.5,0.5-0.9,1.1-1.1,1.7c-0.3,0.7-0.4,1.4-0.4,2.1c0,0.7,0.1,1.4,0.3,2
			c0.2,0.7,0.6,1.2,1.1,1.8c0.5,0.5,1.1,0.9,1.8,1.2S419,185.1,420,185.1z"/>
		<path fill="#010101" d="M445.7,172.9c1,0,2,0.1,2.9,0.4c0.9,0.3,1.7,0.7,2.4,1.3c0.7,0.6,1.2,1.3,1.7,2.2c0.4,0.9,0.6,1.9,0.6,3.1
			c0,1-0.2,1.9-0.5,2.8c-0.3,0.9-0.7,1.7-1.2,2.4s-1.1,1.5-1.8,2.3c-0.7,0.7-1.4,1.5-2.2,2.3l-8.2,8.4c0.4-0.1,0.8-0.2,1.2-0.2
			c0.4,0,0.9-0.1,1.3-0.1h11.4c0.2,0,0.4,0.1,0.5,0.2c0.1,0.1,0.2,0.3,0.2,0.5v1h-17v-0.6c0-0.1,0-0.3,0.1-0.4
			c0.1-0.1,0.2-0.3,0.3-0.4l9-9.1c0.7-0.8,1.4-1.5,2.1-2.2c0.6-0.7,1.2-1.4,1.6-2.1c0.5-0.7,0.8-1.5,1.1-2.2
			c0.3-0.8,0.4-1.6,0.4-2.4c0-1-0.2-1.8-0.5-2.5c-0.3-0.7-0.8-1.3-1.3-1.8c-0.5-0.5-1.2-0.8-1.9-1c-0.7-0.2-1.4-0.3-2.2-0.3
			c-0.8,0-1.6,0.1-2.3,0.4c-0.7,0.3-1.3,0.6-1.9,1.1c-0.5,0.5-1,1-1.3,1.6c-0.4,0.6-0.6,1.3-0.7,2.1c-0.1,0.4-0.4,0.7-0.7,0.7
			c0,0-0.1,0-0.1,0s-0.1,0-0.1,0l-0.9-0.1c0.1-1.1,0.5-2.1,0.9-3c0.5-0.9,1.1-1.6,1.8-2.2c0.7-0.6,1.5-1.1,2.5-1.4
			C443.6,173.1,444.6,172.9,445.7,172.9z"/>
	</g>
	<g>
		<path fill="#010101" d="M54.4,79.8c0-30.9-52.7-19.1-52.7-52.7c0-16.6,12.1-27.3,30.9-27.3C44.7-0.2,49,5,55.8,5
			c3.1,0,4.9-2.1,4.9-5.2h0.4v29.4h-0.4C57.3,12.5,50.1,0.4,32.6,0.4C18.6,0.4,11,9.5,11,20.4c0,31.1,52.9,19.1,52.9,52.6
			c0,16.5-13.8,28.1-30.8,28.1c-15.5,0-18.6-7.6-27.4-7.6c-3.2,0-4.9,2.1-4.9,5.1H0.2V69.2h0.6c3.1,18.1,15,31.4,32.3,31.4
			C47.1,100.5,54.4,91.5,54.4,79.8z"/>
		<path fill="#010101" d="M159.8,28.8v-0.4h23.9v0.4h-0.6c-6.6,0-10.3,7.2-12.9,15.5l-17.6,55.4h-5.2l-16.2-50.1l-17,50.1H109
			L85.8,28.8h-7.9v-0.4h28.4v0.4H97l19.7,61.7l14.2-41.9l-6.3-19.8h-7.9v-0.4h27.8v0.4h-9.3L155,90.1l14.6-46
			c3.1-8.3,1.1-15.3-8.9-15.3L159.8,28.8L159.8,28.8z"/>
		<path fill="#010101" d="M219.5,99.2h8.7v0.4h-28.4v-0.4h8.9V28.8h-8.9v-0.4h19.7V99.2z M213.8,14.9c-3.9,0-6.7-3-6.7-7
			c0-4.2,3.1-7.3,6.7-7.3c4.1,0,6.9,3,6.9,7.2C220.7,11.8,217.6,14.9,213.8,14.9z"/>
		<path fill="#010101" d="M332.7,43.7c0-9.4-4.5-14.6-12.4-14.6c-10.1,0-16.2,9-16.2,18.6v51.6h8.7v0.4h-28.4v-0.4h8.9V43.7
			c0-9.4-4.5-14.6-12.4-14.6c-10.1,0-16.2,9-16.2,18.6v51.6h8.7v0.4h-28.4v-0.4h8.9V28.8h-8.9v-0.4h19.7v12.5
			c2.7-6.8,9.7-13.9,20.5-13.9c10.1,0,16.3,6,18.1,16.2c3.1-9.6,10.4-16.2,21.2-16.2c13.2,0,19,10.5,19,26.7v45.6h8.6v0.4h-28.4
			v-0.4h8.9V43.7z"/>
		<path fill="#010101" d="M427,79.8c0-30.9-52.7-19.1-52.7-52.7c0-16.6,12.1-27.3,30.9-27.3c12.1,0,16.3,5.2,23.2,5.2
			c3.1,0,4.9-2.1,4.9-5.2h0.4v29.4h-0.4c-3.5-16.7-10.7-28.8-28.1-28.8c-14.1,0-21.7,9.1-21.7,20c0,31.1,52.9,19.1,52.9,52.6
			c0,16.5-13.8,28.1-30.8,28.1c-15.5,0-18.6-7.6-27.4-7.6c-3.2,0-4.9,2.1-4.9,5.1h-0.6V69.2h0.6c3.1,18.1,15,31.4,32.3,31.4
			C419.6,100.5,427,91.5,427,79.8z"/>
		<path fill="#010101" d="M507.8,43.7c0-9.4-5.3-14.6-13.9-14.6c-10.7,0-17.4,10-17.4,19.5v50.6h8.7v0.4h-28.4v-0.4h8.9V1.7h-8.9
			V1.2h19.7v40.6C479,35,486.7,27,498.3,27c13.9,0,20.5,10.5,20.5,26.7v45.6h8.6v0.4H499v-0.4h8.9L507.8,43.7L507.8,43.7z"/>
		<path fill="#010101" d="M579.5,100.9c-18.7,0-32.5-16.2-32.5-36.7c0-20.7,15-37.4,33.2-37.4c18.7,0,32.5,16,32.5,36.6
			C612.7,84.1,597.7,100.9,579.5,100.9z M580.2,27.4c-14.6,0-21.5,15.5-21.5,36.1c0,20.5,6.9,36.8,20.8,36.8
			c14.6,0,21.5-15.6,21.5-36.3C601.1,43.6,594.2,27.4,580.2,27.4z"/>
		<path fill="#010101" d="M707.9,28.8v-0.4h23.9v0.4h-0.6c-6.6,0-10.3,7.2-12.9,15.5l-17.6,55.4h-5.2l-16.2-50.1l-17,50.1h-5.2
			L634,28.8h-7.9v-0.4h28.4v0.4h-9.3l19.7,61.7l14.2-41.9l-6.3-19.8h-7.9v-0.4h27.8v0.4h-9.3l19.7,61.3l14.6-46
			c3.1-8.3,1.1-15.3-8.9-15.3L707.9,28.8L707.9,28.8z"/>
	</g>
</g>
</svg>
